<?xml version="1.0" encoding="UTF-8"?>
<svg xmlns="http://www.w3.org/2000/svg" width="963" height="183" viewBox="0 0 963 183" fill="none" shape-rendering="geometricPrecision">
  <title>Hikarinagi wordmark</title>
  <path id="hikarinagi-wordmark" d="M230,134.318L230.356,134L230.574,133L230.574,132L230.574,131L230.574,130L230.574,129L230.574,128L230.574,127L230.574,126L230.574,125L230.574,124L230.574,123L230.574,122L230.574,121L230.574,120L230.574,119L230.574,118L230.574,117L230.574,116L230.574,115L230.574,114L230.574,113L230.574,112L230.574,111L230.574,110L230.574,109L230.574,108L230.574,107L230.574,106L230.574,105L230.574,104L230.574,103L230.574,102L230.574,101L230.574,100L230.574,99L230.574,98L230.574,97L230.574,96L230.574,95L230.574,94L230.574,93L230.574,92L230.574,91L230.574,90L230.574,89L230.574,88L230.574,87L230.574,86L230.574,85L230.574,84L230.574,83L230.574,82L230.574,81L230.574,80L230.574,79L230.574,78L230.574,77L230.574,76L230.574,75L230.574,74L230.574,73L230.574,72L230.574,71L230.574,70L230.574,69L230.574,68L230.574,67L230.574,66L230.574,65L230.574,64L230.574,63L230.574,62L230.574,61L230.574,60L230.574,59L230.574,58L230.574,57L230.574,56L230.574,55L230.574,54L230.574,53L230.574,52L230.574,51L230.574,50L230.574,49L230.574,48L230.574,47L230.574,46L230.574,45L230.574,44L230.574,43L230.574,42L230.574,41L230.574,40L230.574,39L230.574,38L230.574,37L230.574,36L230.574,35L230.574,34L230.574,33L230.574,32L230.574,31L230.574,30L230.574,29L230.574,28L230.574,27L230.574,26L230.574,25L230.574,24L230.574,23L230.574,22L230.574,21L230.574,20L230.574,19L230.574,18L230.574,17L230.574,16L230.574,15L230.574,14L230.574,13L230.574,12L230.574,11L230.574,10L230.574,9L230.574,8L230.574,7L230.574,6L230.574,5L230.572,4L230,3.378L229,3.375L228,3.375L227,3.375L226,3.375L225,3.375L224,3.375L223,3.375L222,3.375L221,3.375L220,3.375L219,3.375L218,3.375L217,3.375L216,3.375L215,3.375L214,3.375L213,3.378L212.428,4L212.426,5L212.426,6L212.426,7L212.426,8L212.426,9L212.426,10L212.426,11L212.426,12L212.426,13L212.426,14L212.426,15L212.426,16L212.426,17L212.426,18L212.426,19L212.426,20L212.426,21L212.426,22L212.426,23L212.426,24L212.426,25L212.426,26L212.426,27L212.426,28L212.426,29L212.426,30L212.426,31L212.426,32L212.426,33L212.426,34L212.426,35L212.426,36L212.426,37L212.426,38L212.426,39L212.426,40L212.426,41L212.426,42L212.426,43L212.426,44L212.426,45L212.426,46L212.426,47L212.426,48L212.426,49L212.426,50L212.426,51L212.426,52L212.426,53L212.426,54L212.426,55L212.426,56L212.426,57L212.426,58L212.426,59L212.426,60L212.426,61L212.426,62L212.426,63L212.426,64L212.426,65L212.426,66L212.426,67L212.426,68L212.426,69L212.426,70L212.426,71L212.426,72L212.426,73L212.426,74L212.426,75L212.426,76L212.426,77L212.426,78L212.426,79L212.426,80L212.426,81L212.426,82L212.426,83L212.426,84L212.426,85L212.426,86L212.426,87L212.426,88L212.426,89L212.426,90L212.426,91L212.426,92L212.426,93L212.426,94L212.426,95L212.426,96L212.426,97L212.426,98L212.426,99L212.426,100L212.426,101L212.426,102L212.426,103L212.426,104L212.426,105L212.426,106L212.426,107L212.426,108L212.426,109L212.426,110L212.426,111L212.426,112L212.426,113L212.426,114L212.426,115L212.426,116L212.426,117L212.426,118L212.426,119L212.426,120L212.426,121L212.426,122L212.426,123L212.426,124L212.426,125L212.426,126L212.426,127L212.426,128L212.426,129L212.426,130L212.426,131L212.426,132L212.426,133L212.644,134L213,134.318L214,134.318L215,134.318L216,134.318L217,134.318L218,134.318L219,134.318L220,134.318L221,134.318L222,134.318L223,134.318L224,134.318L225,134.318L226,134.318L227,134.318L228,134.318L229,134.318ZM162,30.076L162.133,30L163,29.651L164,29.411L164.673,29L165,28.75L166,28.247L166.261,28L167,27.394L167.403,27L168,26.332L168.312,26L168.885,25L169,24.867L169.489,24L169.879,23L170,22.776L170.322,22L170.496,21L170.554,20L170.613,19L170.564,18L170.506,17L170.359,16L170,15.095L169.944,15L169.532,14L169.019,13L169,12.979L168.397,12L168,11.567L167.485,11L167,10.523L166.399,10L166,9.636L165,9.115L164.867,9L164,8.516L163,8.223L162.538,8L162,7.75L161,7.58L160,7.518L159,7.496L158,7.55L157,7.625L156,7.944L155.909,8L155,8.369L154,8.685L153.57,9L153,9.387L152.172,10L152,10.167L151,10.959L150.959,11L150.213,12L150,12.228L149.468,13L149,13.801L148.833,14L148.491,15L148.254,16L148,16.75L147.898,17L147.759,18L147.689,19L147.777,20L147.931,21L148,21.148L148.299,22L148.513,23L148.944,24L149,24.063L149.507,25L150,25.65L150.321,26L151,26.846L151.152,27L152,27.713L152.306,28L153,28.518L153.859,29L154,29.121L155,29.546L156,29.833L156.364,30L157,30.259L158,30.372L159,30.441L160,30.404L161,30.325ZM538,30.076L538.133,30L539,29.651L540,29.411L540.673,29L541,28.75L542,28.247L542.261,28L543,27.394L543.403,27L544,26.332L544.312,26L544.885,25L545,24.867L545.489,24L545.879,23L546,22.776L546.322,22L546.496,21L546.554,20L546.613,19L546.564,18L546.506,17L546.359,16L546,15.095L545.944,15L545.532,14L545.019,13L545,12.979L544.397,12L544,11.567L543.485,11L543,10.523L542.399,10L542,9.636L541,9.115L540.867,9L540,8.516L539,8.223L538.538,8L538,7.75L537,7.58L536,7.518L535,7.496L534,7.55L533,7.625L532,7.944L531.909,8L531,8.369L530,8.685L529.57,9L529,9.387L528.172,10L528,10.167L527,10.959L526.959,11L526.213,12L526,12.228L525.468,13L525,13.801L524.833,14L524.491,15L524.254,16L524,16.75L523.898,17L523.759,18L523.689,19L523.777,20L523.931,21L524,21.148L524.299,22L524.513,23L524.944,24L525,24.063L525.507,25L526,25.65L526.321,26L527,26.846L527.152,27L528,27.713L528.306,28L529,28.518L529.859,29L530,29.121L531,29.546L532,29.833L532.364,30L533,30.259L534,30.372L535,30.441L536,30.404L537,30.325ZM946,30.076L946.133,30L947,29.651L948,29.411L948.673,29L949,28.75L950,28.247L950.261,28L951,27.394L951.403,27L952,26.332L952.312,26L952.885,25L953,24.867L953.489,24L953.879,23L954,22.776L954.322,22L954.496,21L954.554,20L954.613,19L954.564,18L954.506,17L954.359,16L954,15.095L953.944,15L953.532,14L953.019,13L953,12.979L952.397,12L952,11.567L951.485,11L951,10.523L950.399,10L950,9.636L949,9.115L948.867,9L948,8.516L947,8.223L946.538,8L946,7.75L945,7.58L944,7.518L943,7.496L942,7.55L941,7.625L940,7.944L939.909,8L939,8.369L938,8.685L937.57,9L937,9.387L936.172,10L936,10.167L935,10.959L934.959,11L934.213,12L934,12.228L933.468,13L933,13.801L932.833,14L932.491,15L932.254,16L932,16.75L931.898,17L931.759,18L931.689,19L931.777,20L931.931,21L932,21.148L932.299,22L932.513,23L932.944,24L933,24.063L933.507,25L934,25.65L934.321,26L935,26.846L935.152,27L936,27.713L936.306,28L937,28.518L937.859,29L938,29.121L939,29.546L940,29.833L940.364,30L941,30.259L942,30.372L943,30.441L944,30.404L945,30.325ZM25,134.102L25.102,134L25.359,133L25.359,132L25.359,131L25.359,130L25.359,129L25.359,128L25.359,127L25.359,126L25.359,125L25.359,124L25.359,123L25.359,122L25.359,121L25.359,120L25.359,119L25.359,118L25.359,117L25.359,116L25.359,115L25.359,114L25.359,113L25.359,112L25.359,111L25.359,110L25.359,109L25.359,108L25.359,107L25.359,106L25.359,105L25.359,104L25.359,103L25.359,102L25.359,101L25.359,100L25.359,99L25.359,98L25.359,97L25.359,96L25.359,95L25.359,94L25.359,93L25.359,92L25.359,91L25.359,90L25.359,89L25.359,88L25.359,87L25.359,86L25.359,85L25.359,84L25.359,83L25.359,82L25.359,81L25.359,80L25.359,79L25.359,78L25.359,77L25.359,76L25.359,75L25.359,74L25.359,73L25.359,72L25.359,71L25.359,70L25.359,69L25.359,68L25.359,67L25.359,66L25.359,65L25.359,64L25.359,63L25.359,62L25.359,61L25.359,60L25.359,59L25.359,58L25.359,57L25.359,56L25.359,55L25.359,54L25.359,53L25.359,52L25.359,51L25.359,50L25.359,49L25.359,48L25.359,47L25.359,46L25.359,45L25.359,44L25.359,43L25.359,42L25.359,41L25.359,40L25.359,39L25.359,38L25.359,37L25.359,36L25.359,35L25.359,34L25.359,33L25.359,32L25.359,31L25.359,30L25.359,29L25.359,28L25.359,27L25.359,26L25.359,25L25.359,24L25.359,23L25.359,22L25.359,21L25.359,20L25.359,19L25.359,18L25.359,17L25.359,16L25.359,15L25.359,14L25.359,13L25.359,12L25.359,11L25.359,10L25.177,9L25,8.823L24,8.625L23,8.625L22,8.625L21,8.625L20,8.625L19,8.625L18,8.625L17,8.625L16,8.625L15,8.625L14,8.625L13,8.625L12,8.625L11,8.625L10,8.625L9,8.625L8,8.625L7,8.823L6.823,9L6.641,10L6.641,11L6.641,12L6.641,13L6.641,14L6.641,15L6.641,16L6.641,17L6.641,18L6.641,19L6.641,20L6.641,21L6.641,22L6.641,23L6.641,24L6.641,25L6.641,26L6.641,27L6.641,28L6.641,29L6.641,30L6.641,31L6.641,32L6.641,33L6.641,34L6.641,35L6.641,36L6.641,37L6.641,38L6.641,39L6.641,40L6.641,41L6.641,42L6.641,43L6.641,44L6.641,45L6.641,46L6.641,47L6.641,48L6.641,49L6.641,50L6.641,51L6.641,52L6.641,53L6.641,54L6.641,55L6.641,56L6.641,57L6.641,58L6.641,59L6.641,60L6.641,61L6.641,62L6.641,63L6.641,64L6.641,65L6.641,66L6.641,67L6.641,68L6.641,69L6.641,70L6.641,71L6.641,72L6.641,73L6.641,74L6.641,75L6.641,76L6.641,77L6.641,78L6.641,79L6.641,80L6.641,81L6.641,82L6.641,83L6.641,84L6.641,85L6.641,86L6.641,87L6.641,88L6.641,89L6.641,90L6.641,91L6.641,92L6.641,93L6.641,94L6.641,95L6.641,96L6.641,97L6.641,98L6.641,99L6.641,100L6.641,101L6.641,102L6.641,103L6.641,104L6.641,105L6.641,106L6.641,107L6.641,108L6.641,109L6.641,110L6.641,111L6.641,112L6.641,113L6.641,114L6.641,115L6.641,116L6.641,117L6.641,118L6.641,119L6.641,120L6.641,121L6.641,122L6.641,123L6.641,124L6.641,125L6.641,126L6.641,127L6.641,128L6.641,129L6.641,130L6.641,131L6.641,132L6.641,133L6.898,134L7,134.102L8,134.318L9,134.318L10,134.318L11,134.318L12,134.318L13,134.318L14,134.318L15,134.318L16,134.318L17,134.318L18,134.318L19,134.318L20,134.318L21,134.318L22,134.318L23,134.318L24,134.318ZM104,134.161L104.161,134L104.45,133L104.45,132L104.45,131L104.45,130L104.45,129L104.45,128L104.45,127L104.45,126L104.45,125L104.45,124L104.45,123L104.45,122L104.45,121L104.45,120L104.45,119L104.45,118L104.45,117L104.45,116L104.45,115L104.45,114L104.45,113L104.45,112L104.45,111L104.45,110L104.45,109L104.45,108L104.45,107L104.45,106L104.45,105L104.45,104L104.45,103L104.45,102L104.45,101L104.45,100L104.45,99L104.45,98L104.45,97L104.45,96L104.45,95L104.45,94L104.45,93L104.45,92L104.45,91L104.45,90L104.45,89L104.45,88L104.45,87L104.45,86L104.45,85L104.45,84L104.45,83L104.45,82L104.45,81L104.45,80L104.45,79L104.45,78L104.45,77L104.45,76L104.45,75L104.45,74L104.45,73L104.45,72L104.45,71L104.45,70L104.45,69L104.45,68L104.45,67L104.45,66L104.45,65L104.45,64L104.45,63L104.45,62L104.45,61L104.45,60L104.45,59L104.45,58L104.45,57L104.45,56L104.45,55L104.45,54L104.45,53L104.45,52L104.45,51L104.45,50L104.45,49L104.45,48L104.45,47L104.45,46L104.45,45L104.45,44L104.45,43L104.45,42L104.45,41L104.45,40L104.45,39L104.45,38L104.45,37L104.45,36L104.45,35L104.45,34L104.45,33L104.45,32L104.45,31L104.45,30L104.45,29L104.45,28L104.45,27L104.45,26L104.45,25L104.45,24L104.45,23L104.45,22L104.45,21L104.45,20L104.45,19L104.45,18L104.45,17L104.45,16L104.45,15L104.45,14L104.45,13L104.45,12L104.45,11L104.45,10L104.203,9L104,8.797L103,8.625L102,8.625L101,8.625L100,8.625L99,8.625L98,8.625L97,8.625L96,8.625L95,8.625L94,8.625L93,8.625L92,8.625L91,8.625L90,8.625L89,8.625L88,8.625L87,8.637L86.438,9L86,9.715L85.85,10L85.85,11L85.85,12L85.85,13L85.85,14L85.85,15L85.856,16L85.856,17L85.856,18L85.856,19L85.856,20L85.861,21L85.861,22L85.861,23L85.861,24L85.861,25L85.867,26L85.867,27L85.867,28L85.867,29L85.867,30L85.873,31L85.873,32L85.873,33L85.873,34L85.873,35L85.879,36L85.879,37L85.879,38L85.879,39L85.879,40L85.879,41L85.885,42L85.885,43L85.885,44L85.885,45L85.885,46L85.892,47L85.892,48L85.892,49L85.892,50L85.892,51L85.898,52L85.898,53L85.898,54L85.898,55L85.898,56L85.904,57L85.904,58L85.904,59L85.904,60L85.873,61L85,61.625L84,61.625L83,61.625L82,61.625L81,61.625L80,61.625L79,61.625L78,61.625L77,61.625L76,61.625L75,61.625L74,61.625L73,61.625L72,61.625L71,61.625L70,61.625L69,61.625L68,61.625L67,61.625L66,61.625L65,61.625L64,61.625L63,61.625L62,61.625L61,61.625L60,61.625L59,61.625L58,61.625L57,61.625L56,61.625L55,61.625L54,61.625L53,61.625L52,61.625L51,61.625L50,61.625L49,61.625L48,61.625L47,61.625L46,61.671L45,61.773L44,61.944L43.9,62L43,62.346L42,62.546L41.083,63L41,63.069L40,63.566L39.425,64L39,64.366L38.269,65L38,65.256L37.238,66L37,66.252L36.391,67L36,67.434L35.535,68L35,68.835L34.85,69L34.379,70L34,70.575L33.693,71L33.346,72L33,72.587L32.729,73L32.432,74L32.588,75L33,75.315L34,75.318L35,75.318L36,75.318L37,75.318L38,75.318L39,75.318L40,75.318L41,75.318L42,75.318L43,75.318L44,75.318L45,75.318L46,75.318L47,75.318L48,75.318L49,75.318L50,75.318L51,75.318L52,75.318L53,75.318L54,75.318L55,75.318L56,75.318L57,75.318L58,75.318L59,75.318L60,75.318L61,75.318L62,75.318L63,75.318L64,75.318L65,75.318L66,75.318L67,75.318L68,75.318L69,75.318L70,75.318L71,75.318L72,75.318L73,75.318L74,75.318L75,75.318L76,75.318L77,75.318L78,75.318L79,75.318L80,75.318L81,75.318L82,75.318L83,75.318L84,75.318L85,75.339L85.823,76L85.879,77L85.879,78L85.879,79L85.879,80L85.879,81L85.879,82L85.879,83L85.879,84L85.879,85L85.879,86L85.879,87L85.879,88L85.879,89L85.879,90L85.879,91L85.879,92L85.879,93L85.879,94L85.879,95L85.879,96L85.879,97L85.879,98L85.879,99L85.879,100L85.879,101L85.879,102L85.879,103L85.879,104L85.879,105L85.879,106L85.879,107L85.879,108L85.879,109L85.879,110L85.879,111L85.879,112L85.879,113L85.879,114L85.879,115L85.879,116L85.879,117L85.879,118L85.879,119L85.879,120L85.879,121L85.879,122L85.879,123L85.879,124L85.879,125L85.879,126L85.879,127L85.879,128L85.879,129L85.879,130L85.879,131L85.879,132L85.879,133L86,133.398L86.308,134L87,134.318L88,134.318L89,134.318L90,134.318L91,134.318L92,134.318L93,134.318L94,134.318L95,134.318L96,134.318L97,134.318L98,134.318L99,134.318L100,134.318L101,134.318L102,134.318L103,134.318ZM358,136.089L358.481,136L359,135.904L360,135.697L361,135.569L362,135.469L363,135.284L363.765,135L364,134.892L365,134.585L366,134.375L366.841,134L367,133.898L368,133.504L369,133.108L369.131,133L370,132.53L370.987,132L371,131.988L372,131.446L372.591,131L373,130.655L374,130.012L374.012,130L375,129.287L375.308,129L376,128.406L376.419,128L377,127.44L377.449,127L378,126.434L378.412,126L379,125.348L379.331,125L379.938,124L380,123.926L381,123.348L381.296,124L381.457,125L381.628,126L382,126.899L382.062,127L382.475,128L382.973,129L383,129.03L383.553,130L384,130.551L384.383,131L385,131.85L385.144,132L385.996,133L386,133.004L387,133.944L387.112,134L388,134.318L389,134.318L390,134.318L391,134.318L392,134.318L393,134.318L394,134.318L395,134.318L396,134.318L397,134.318L398,134.318L399,134.318L400,134.315L400.387,134L400.567,133L400.468,132L400.346,131L400.15,130L400,129.489L399.856,129L399.661,128L399.552,127L399.479,126L399.393,125L399.276,124L399.102,123L399,122.547L398.879,122L398.754,121L398.668,120L398.596,119L398.538,118L398.494,117L398.473,116L398.453,115L398.433,114L398.41,113L398.393,112L398.387,111L398.384,110L398.384,109L398.381,108L398.378,107L398.375,106L398.372,105L398.372,104L398.369,103L398.366,102L398.363,101L398.359,100L398.356,99L398.356,98L398.353,97L398.349,96L398.346,95L398.346,94L398.343,93L398.339,92L398.336,91L398.332,90L398.329,89L398.329,88L398.325,87L398.322,86L398.322,85L398.318,84L398.315,83L398.311,82L398.307,81L398.303,80L398.276,79L398.237,78L398.183,77L398.133,76L398,75.152L397.973,75L397.797,74L397.678,73L397.582,72L397.479,71L397.343,70L397.121,69L397,68.708L396.75,68L396.528,67L396.349,66L396,65.11L395.938,65L395.553,64L395.292,63L395,62.48L394.724,62L394.397,61L394,60.35L393.741,60L393.383,59L393,58.49L392.623,58L392.096,57L392,56.896L391.42,56L391,55.506L390.567,55L390,54.32L389.699,54L389,53.217L388.783,53L388,52.217L387.783,52L387,51.293L386.686,51L386,50.443L385.491,50L385,49.572L384.132,49L384,48.879L383,48.374L382.516,48L382,47.61L381,47.208L380.711,47L380,46.605L379,46.296L378.46,46L378,45.737L377,45.476L376,45.156L375.691,45L375,44.708L374,44.519L373,44.362L372,44.083L371.726,44L371,43.807L370,43.641L369,43.533L368,43.467L367,43.42L366,43.372L365,43.315L364,43.25L363,43.25L362,43.25L361,43.25L360,43.292L359,43.346L358,43.39L357,43.431L356,43.486L355,43.554L354,43.631L353,43.746L352.011,44L352,44.004L351,44.259L350,44.415L349,44.527L348,44.704L347.108,45L347,45.049L346,45.346L345,45.526L344,45.763L343.48,46L343,46.223L342,46.483L341,46.787L340.594,47L340,47.284L339,47.522L338,47.904L337.874,48L337,48.427L336,48.72L335.61,49L335,49.662L334.763,50L335,50.482L335.25,51L335.528,52L335.844,53L336,53.245L336.363,54L336.593,55L337,55.921L337.056,56L337.444,57L337.685,58L338,58.616L338.223,59L338.509,60L339,60.853L340,60.885L341,60.537L342,60.288L342.566,60L343,59.763L344,59.521L345,59.322L345.796,59L346,58.892L347,58.604L348,58.468L349,58.296L349.922,58L350,57.966L351,57.716L352,57.588L353,57.5L354,57.41L355,57.346L356,57.28L357,57.198L358,57.127L359,57.167L360,57.167L361,57.25L362,57.303L363,57.418L364,57.498L365,57.582L366,57.812L366.41,58L367,58.25L368,58.474L369,58.693L369.518,59L370,59.292L371,59.661L371.417,60L372,60.451L372.684,61L373,61.291L373.866,62L374,62.134L374.734,63L375,63.277L375.608,64L376,64.49L376.392,65L376.898,66L377,66.113L377.5,67L377.892,68L378,68.142L378.429,69L378.654,70L379,70.9L379.056,71L379.396,72L379.527,73L379.644,74L379.833,75L380,75.911L380.019,76L380.127,77L380.213,78L380.241,79L380.241,80L380.241,81L380.246,82L380.246,83L380.246,84L380.246,85L380.246,86L380.246,87L380.25,88L380.246,89L380.25,90L380.25,91L380.25,92L380.25,93L380.254,94L380.254,95L380.254,96L380.254,97L380.254,98L380.254,99L380.259,100L380.259,101L380.259,102L380.259,103L380.259,104L380.259,105L380.263,106L380.263,107L380.263,108L380.263,109L380,109.858L379.944,110L379.306,111L379,111.322L378.416,112L378,112.448L377.477,113L377,113.479L376.479,114L376,114.477L375.445,115L375,115.411L374.304,116L374,116.289L373,116.966L372.965,117L372,117.625L371.541,118L371,118.414L370,118.873L369.855,119L369,119.493L368,119.924L367.904,120L367,120.446L366,120.708L365.375,121L365,121.198L364,121.47L363,121.61L362,121.833L361.446,122L361,122.139L360,122.288L359,122.325L358,122.362L357,122.296L356,122.172L355.436,122L355,121.861L354,121.596L353,121.404L352.199,121L352,120.856L351,120.434L350.399,120L350,119.669L349.091,119L349,118.911L348.083,118L348,117.916L347.322,117L347,116.609L346.564,116L346.172,115L346,114.74L345.628,114L345.448,113L345.296,112L345.127,111L345.049,110L345.069,109L345.193,108L345.343,107L345.498,106L345.773,105L346,104.702L346.417,104L346.856,103L347,102.849L347.634,102L348,101.601L348.568,101L349,100.592L349.709,100L350,99.729L351,99.25L351.289,99L352,98.516L353,98.041L353.052,98L354,97.549L355,97.288L355.66,97L356,96.828L357,96.559L358,96.45L359,96.318L360,96.089L360.26,96L361,95.782L362,95.604L363,95.438L364,95.108L364.161,95L365,94.611L366,94.246L366.314,94L367,93.561L367.74,93L368,92.759L368.944,92L369,91.944L369.776,91L370,90.766L370.566,90L371,89.386L371.311,89L371.689,88L372,87.468L372.284,87L372.57,86L372.917,85L373,84.849L373.336,84L373.521,83L373.286,82L373,81.737L372,81.797L371,81.996L370.984,82L370,82.193L369,82.322L368,82.415L367,82.488L366,82.567L365,82.693L364,82.917L363.72,83L363,83.188L362,83.369L361,83.477L360,83.577L359,83.768L358.3,84L358,84.115L357,84.356L356,84.498L355,84.634L354,84.885L353.754,85L353,85.284L352,85.481L351,85.651L350.007,86L350,86.004L349,86.349L348,86.537L347,86.879L346.794,87L346,87.346L345,87.543L344,87.861L343.808,88L343,88.41L342,88.787L341.692,89L341,89.378L340,89.657L339.504,90L339,90.348L338,90.763L337.724,91L337,91.488L336.277,92L336,92.246L335,92.938L334.936,93L334,93.66L333.641,94L333,94.597L332.589,95L332,95.608L331.625,96L331,96.725L330.74,97L330.127,98L330,98.136L329.453,99L329,99.663L328.72,100L328.375,101L328,101.659L327.763,102L327.483,103L327.203,104L327,104.478L326.782,105L326.582,106L326.482,107L326.412,108L326.339,109L326.322,110L326.318,111L326.359,112L326.431,113L326.49,114L326.554,115L326.72,116L327,116.853L327.062,117L327.343,118L327.551,119L327.917,120L328,120.121L328.398,121L328.729,122L329,122.365L329.397,123L329.807,124L330,124.213L330.538,125L331,125.603L331.338,126L332,126.836L332.161,127L332.996,128L333,128.004L334,128.944L334.056,129L335,129.757L335.253,130L336,130.58L336.534,131L337,131.379L338,131.966L338.038,132L339,132.518L339.873,133L340,133.108L341,133.524L342,133.904L342.134,134L343,134.407L344,134.613L345,134.944L345.101,135L346,135.343L347,135.492L348,135.604L349,135.782L350,135.981L350.114,136L351,136.133L352,136.263L353,136.318L354,136.318L355,136.318L356,136.292L357,136.203ZM458,134.375L458.517,134L458.733,133L458.733,132L458.733,131L458.733,130L458.729,129L458.729,128L458.729,127L458.729,126L458.729,125L458.729,124L458.724,123L458.724,122L458.724,121L458.724,120L458.724,119L458.72,118L458.72,117L458.72,116L458.72,115L458.72,114L458.716,113L458.716,112L458.716,111L458.716,110L458.716,109L458.716,108L458.712,107L458.712,106L458.712,105L458.712,104L458.712,103L458.708,102L458.708,101L458.712,100L458.708,99L458.708,98L458.704,97L458.704,96L458.704,95L458.704,94L458.704,93L458.704,92L458.716,91L458.746,90L458.782,89L458.823,88L458.861,87L458.911,86L458.966,85L459,84.357L459.019,84L459.127,83L459.254,82L459.353,81L459.46,80L459.557,79L459.746,78L460,77.37L460.167,77L460.438,76L460.651,75L461,74.255L461.156,74L461.502,73L461.879,72L462,71.853L462.461,71L462.911,70L463,69.901L463.53,69L464,68.307L464.259,68L464.839,67L465,66.83L465.636,66L466,65.615L466.567,65L467,64.567L467.615,64L468,63.632L468.794,63L469,62.807L470,62.25L470.299,62L471,61.541L472,61.049L472.061,61L473,60.549L474,60.276L474.638,60L475,59.823L476,59.569L477,59.464L478,59.349L479,59.271L480,59.198L481,59.198L482,59.25L483,59.315L484,59.423L485,59.502L486,59.613L487,59.817L487.548,60L488,60.156L488.331,60L489,59.428L489.218,59L489.363,58L489.462,57L489.538,56L489.637,55L489.777,54L490,53.014L490.004,53L490.223,52L490.369,51L490.464,50L490.54,49L490.644,48L490.787,47L490.938,46L490.215,45L490,44.823L489,44.577L488,44.428L487,44.203L486.145,44L486,43.959L485,43.768L484,43.647L483,43.625L482,43.625L481,43.625L480,43.671L479,43.839L478.355,44L478,44.096L477,44.339L476,44.534L475,44.787L474.617,45L474,45.303L473,45.614L472.337,46L472,46.241L471,46.626L470.525,47L470,47.404L469,47.996L468.996,48L468,48.698L467.682,49L467,49.57L466.517,50L466,50.47L465.459,51L465,51.478L464.503,52L464,52.51L463.535,53L463,53.66L462.693,54L462,54.996L461.996,55L461.384,56L461,56.513L460.631,57L460.167,58L460,58.206L459.552,59L459.193,60L459,60.254L458.551,60L458.093,59L458,58.5L457.911,58L457.75,57L457.582,56L457.466,55L457.263,54L457,53.341L456.844,53L456.546,52L456.307,51L456,50.467L455.72,50L455.402,49L455,48.409L454.684,48L454.177,47L454,46.814L453.323,46L453,45.671L452,45.127L451.315,45L451,44.938L450,44.938L449,44.938L448,44.938L447,44.938L446,44.938L445,44.938L444,44.938L443,44.938L442.393,45L442,45.041L441,45.062L440,45.062L439.108,46L439.332,47L439.466,48L439.572,49L439.729,50L440,50.99L440.004,51L440.227,52L440.366,53L440.46,54L440.536,55L440.628,56L440.737,57L440.844,58L440.988,59L441,59.068L441.139,60L441.246,61L441.329,62L441.366,63L441.393,64L441.418,65L441.441,66L441.462,67L441.475,68L441.477,69L441.48,70L441.482,71L441.486,72L441.488,73L441.49,74L441.494,75L441.496,76L441.498,77L441.502,78L441.502,79L441.504,80L441.51,81L441.51,82L441.512,83L441.516,84L441.518,85L441.52,86L441.525,87L441.527,88L441.529,89L441.531,90L441.538,91L441.538,92L441.54,93L441.545,94L441.547,95L441.55,96L441.554,97L441.557,98L441.559,99L441.564,100L441.559,101L441.559,102L441.557,103L441.557,104L441.554,105L441.552,106L441.552,107L441.55,108L441.547,109L441.547,110L441.545,111L441.545,112L441.543,113L441.54,114L441.54,115L441.538,116L441.536,117L441.536,118L441.533,119L441.533,120L441.531,121L441.529,122L441.529,123L441.527,124L441.527,125L441.525,126L441.523,127L441.523,128L441.52,129L441.518,130L441.518,131L441.516,132L441.516,133L441.817,134L442,134.183L443,134.318L444,134.318L445,134.318L446,134.318L447,134.318L448,134.318L449,134.318L450,134.318L451,134.318L452,134.318L453,134.372L454,134.375L455,134.375L456,134.375L457,134.375ZM662,134.292L662.311,134L662.569,133L662.569,132L662.569,131L662.569,130L662.569,129L662.569,128L662.569,127L662.569,126L662.569,125L662.569,124L662.569,123L662.569,122L662.569,121L662.569,120L662.569,119L662.569,118L662.569,117L662.569,116L662.569,115L662.569,114L662.569,113L662.569,112L662.569,111L662.569,110L662.569,109L662.569,108L662.569,107L662.569,106L662.569,105L662.569,104L662.569,103L662.572,102L662.572,101L662.572,100L662.572,99L662.572,98L662.572,97L662.572,96L662.572,95L662.572,94L662.572,93L662.572,92L662.572,91L662.572,90L662.572,89L662.572,88L662.572,87L662.572,86L662.572,85L662.572,84L662.572,83L662.572,82L662.572,81L662.572,80L662.572,79L662.572,78L662.572,77L662.572,76L662.572,75L662.572,74L662.572,73L662.572,72L662.569,71L662.554,70L662.54,69L662.527,68L662.492,67L662.448,66L662.396,65L662.292,64L662.062,63L662,62.798L661.792,62L661.61,61L661.438,60L661.144,59L661,58.735L660.682,58L660.395,57L660,56.295L659.787,56L659.433,55L659,54.355L658.712,54L658.227,53L658,52.74L657.475,52L657,51.467L656.571,51L656,50.342L655.671,50L655,49.368L654.605,49L654,48.465L653.471,48L653,47.598L652,47.034L651.964,47L651,46.431L650.246,46L650,45.812L649,45.464L648,45.004L647.994,45L647,44.601L646,44.426L645,44.133L644.658,44L644,43.773L643,43.616L642,43.506L641,43.431L640,43.375L639,43.325L638,43.267L637,43.28L636,43.325L635,43.375L634,43.426L633,43.504L632,43.59L631,43.724L630.01,44L630,44.004L629,44.329L628,44.49L627,44.654L626.135,45L626,45.076L625,45.42L624,45.613L623.106,46L623,46.069L622,46.465L621,46.759L620.611,47L620,47.332L619,47.638L618.406,48L618,48.28L617,48.605L616.36,49L616,49.267L615,49.657L614.528,50L614,50.371L613,50.746L612.638,51L612,51.375L611.359,52L611.931,53L612,53.07L612.904,54L613,54.096L614,54.867L614.139,55L615,55.618L615.475,56L616,56.4L617,56.873L617.159,57L618,57.441L619,57.729L619.617,58L620,58.188L621,58.428L622,58.508L623,58.569L624,58.577L625,58.559L626,58.494L627,58.412L628,58.213L628.605,58L629,57.85L630,57.619L631,57.488L632,57.384L633,57.322L634,57.276L635,57.284L636,57.384L637,57.515L638,57.782L638.301,58L639,58.4L639.972,59L640,59.027L641,59.938L641.062,60L641.727,61L642,61.33L642.447,62L642.807,63L643,63.318L643.339,64L643.508,65L643.675,66L643.944,67L644,67.341L644.102,68L644.213,69L644.28,70L644.284,71L644.284,72L644.284,73L644.284,74L644.284,75L644.284,76L644.284,77L644.284,78L644.284,79L644.284,80L644.284,81L644.284,82L644.284,83L644.284,84L644.284,85L644.284,86L644.284,87L644.284,88L644.284,89L644.284,90L644.284,91L644.284,92L644.284,93L644.284,94L644.284,95L644.284,96L644.284,97L644.284,98L644.284,99L644.284,100L644.284,101L644.284,102L644.284,103L644.284,104L644.284,105L644.284,106L644.284,107L644.284,108L644.284,109L644.284,110L644.284,111L644.284,112L644.284,113L644.284,114L644.284,115L644.284,116L644.284,117L644.284,118L644.284,119L644.284,120L644.284,121L644.284,122L644.284,123L644.284,124L644.284,125L644.284,126L644.284,127L644.284,128L644.284,129L644.284,130L644.284,131L644.284,132L644.284,133L644.597,134L645,134.315L646,134.318L647,134.318L648,134.318L649,134.318L650,134.318L651,134.318L652,134.318L653,134.318L654,134.318L655,134.318L656,134.318L657,134.318L658,134.318L659,134.318L660,134.318L661,134.318ZM735,136.056L735.203,136L736,135.812L737,135.644L738,135.506L739,135.359L739.979,135L740,134.988L741,134.613L742,134.393L742.833,134L743,133.885L744,133.498L745,133.027L745.031,133L746,132.495L746.835,132L747,131.856L748,131.373L748.457,131L749,130.575L749.823,130L750,129.833L751,129.198L751.209,129L752,128.351L752.366,128L753,127.428L753.444,127L754,126.45L754.45,126L755,125.435L755.403,125L755.973,124L756,123.968L757,123.343L757.315,124L757.487,125L757.654,126L758,126.682L758.198,127L758.526,128L759,128.96L759.034,129L759.593,130L760,130.535L760.368,131L761,131.841L761.156,132L762,132.996L762.004,133L763,133.951L763.098,134L764,134.318L765,134.318L766,134.318L767,134.318L768,134.318L769,134.318L770,134.318L771,134.318L772,134.318L773,134.318L774,134.318L775,134.318L776,134.315L776.387,134L776.567,133L776.473,132L776.356,131L776.172,130L776,129.384L775.885,129L775.678,128L775.567,127L775.494,126L775.412,125L775.303,124L775.144,123L775,122.306L774.931,122L774.792,121L774.693,120L774.616,119L774.552,118L774.508,117L774.486,116L774.467,115L774.443,114L774.42,113L774.404,112L774.401,111L774.399,110L774.396,109L774.393,108L774.387,107L774.387,106L774.384,105L774.381,104L774.375,103L774.375,102L774.372,101L774.369,100L774.366,99L774.362,98L774.359,97L774.356,96L774.353,95L774.346,94L774.346,93L774.343,92L774.339,91L774.336,90L774.332,89L774.329,88L774.325,87L774.322,86L774.318,85L774.311,84L774.307,83L774.303,82L774.299,81L774.296,80L774.267,79L774.227,78L774.183,77L774.121,76L774,75.3L773.944,75L773.792,74L773.678,73L773.572,72L773.468,71L773.339,70L773.108,69L773,68.765L772.716,68L772.521,67L772.349,66L772,65.194L771.885,65L771.542,64L771.288,63L771,62.519L770.697,62L770.378,61L770,60.365L769.741,60L769.355,59L769,58.534L768.61,58L768.115,57L768,56.878L767.41,56L767,55.515L766.569,55L766,54.312L765.7,54L765,53.234L764.77,53L764,52.18L763.819,52L763,51.289L762.696,51L762,50.414L761.529,50L761,49.56L760.143,49L760,48.867L759,48.331L758.56,48L758,47.612L757,47.237L756.696,47L756,46.579L755,46.292L754.485,46L754,45.72L753,45.447L752,45.144L751.705,45L751,44.712L750,44.508L749,44.343L748,44.127L747.606,44L747,43.817L746,43.628L745,43.54L744,43.49L743,43.441L742,43.384L741,43.322L740,43.318L739,43.318L738,43.28L737,43.315L736,43.339L735,43.375L734,43.41L733,43.46L732,43.514L731,43.569L730,43.647L729,43.812L728.263,44L728,44.076L727,44.292L726,44.431L725,44.552L724,44.729L723.167,45L723,45.069L722,45.362L721,45.539L720,45.777L719.513,46L719,46.232L718,46.485L717,46.741L716.506,47L716,47.263L715,47.517L714,47.904L713.871,48L713,48.422L712,48.701L711.596,49L711,49.706L710.792,50L711,50.447L711.246,51L711.52,52L711.844,53L712,53.247L712.359,54L712.593,55L713,55.941L713.041,56L713.44,57L713.685,58L714,58.616L714.223,59L714.509,60L715,60.794L716,60.917L717,60.548L718,60.296L718.575,60L719,59.763L720,59.519L721,59.322L721.807,59L722,58.898L723,58.599L724,58.466L725,58.299L725.956,58L726,57.981L727,57.708L728,57.588L729,57.502L730,57.42L731,57.329L732,57.276L733,57.218L734,57.144L735,57.102L736,57.167L737,57.25L738,57.299L739,57.378L740,57.494L741,57.601L742,57.768L742.592,58L743,58.172L744,58.45L745,58.704L745.482,59L746,59.311L747,59.712L747.36,60L748,60.436L748.723,61L749,61.268L749.859,62L750,62.139L750.763,63L751,63.25L751.605,64L752,64.478L752.406,65L752.879,66L753,66.137L753.498,67L753.904,68L754,68.129L754.422,69L754.664,70L755,70.872L755.069,71L755.399,72L755.538,73L755.654,74L755.85,75L756,75.9L756.019,76L756.133,77L756.218,78L756.227,79L756.232,80L756.232,81L756.237,82L756.237,83L756.237,84L756.241,85L756.241,86L756.241,87L756.246,88L756.246,89L756.246,90L756.25,91L756.25,92L756.25,93L756.25,94L756.254,95L756.254,96L756.259,97L756.259,98L756.259,99L756.263,100L756.263,101L756.267,102L756.263,103L756.267,104L756.271,105L756.271,106L756.271,107L756.276,108L756.271,109L756,109.754L755.892,110L755.279,111L755,111.296L754.408,112L754,112.444L753.479,113L753,113.477L752.468,114L752,114.461L751.444,115L751,115.423L750.301,116L750,116.277L749,116.911L748.908,117L748,117.611L747.484,118L747,118.369L746,118.861L745.844,119L745,119.491L744,119.898L743.869,120L743,120.439L742,120.741L741.444,121L741,121.218L740,121.466L739,121.654L738,121.856L737.386,122L737,122.096L736,122.271L735,122.369L734,122.375L733,122.332L732,122.227L731.148,122L731,121.951L730,121.654L729,121.44L728.096,121L728,120.924L727,120.456L726.384,120L726,119.671L725.11,119L725,118.892L724.108,118L724,117.888L723.34,117L723,116.571L722.594,116L722.198,115L722,114.665L721.671,114L721.488,113L721.346,112L721.198,111L721.069,110L721.069,109L721.161,108L721.336,107L721.5,106L721.759,105L722,104.657L722.38,104L722.828,103L723,102.813L723.595,102L724,101.566L724.548,101L725,100.564L725.668,100L726,99.699L727,99.188L727.229,99L728,98.546L729,98.096L729.117,98L730,97.553L731,97.339L731.771,97L732,96.867L733,96.569L734,96.46L735,96.322L736,96.089L736.25,96L737,95.773L738,95.593L739,95.461L740,95.133L740.21,95L741,94.634L742,94.318L742.41,94L743,93.585L743.772,93L744,92.781L744.973,92L745,91.973L745.787,91L746,90.776L746.592,90L747,89.427L747.325,89L747.716,88L748,87.537L748.315,87L748.565,86L748.924,85L749,84.833L749.292,84L749.475,83L749.32,82L749,81.704L748,81.802L747,81.996L746.984,82L746,82.193L745,82.318L744,82.418L743,82.504L742,82.59L741,82.72L740,82.917L739.712,83L739,83.183L738,83.372L737,83.488L736,83.596L735,83.759L734.221,84L734,84.083L733,84.343L732,84.488L731,84.616L730,84.85L729.631,85L729,85.232L728,85.446L727,85.593L726,85.873L725.763,86L725,86.318L724,86.517L723,86.763L722.571,87L722,87.292L721,87.542L720,87.892L719.855,88L719,88.422L718,88.729L717.583,89L717,89.343L716,89.678L715.565,90L715,90.385L714,90.787L713.752,91L713,91.495L712.304,92L712,92.267L711,92.812L710.803,93L710,93.651L709.634,94L709,94.572L708.549,95L708,95.567L707.603,96L707,96.725L706.738,97L706.062,98L706,98.066L705.428,99L705,99.668L704.741,100L704.392,101L704,101.748L703.823,102L703.513,103L703.288,104L703,104.873L702.944,105L702.678,106L702.532,107L702.443,108L702.404,109L702.362,110L702.318,111L702.343,112L702.41,113L702.464,114L702.516,115L702.661,116L702.959,117L703,117.095L703.292,118L703.507,119L703.833,120L704,120.255L704.369,121L704.638,122L705,122.5L705.364,123L705.802,124L706,124.233L706.491,125L707,125.655L707.31,126L708,126.93L708.069,127L708.892,128L709,128.109L709.917,129L710,129.083L711,129.885L711.118,130L712,130.65L712.41,131L713,131.453L713.882,132L714,132.108L715,132.568L715.734,133L716,133.208L717,133.536L718,133.931L718.109,134L719,134.378L720,134.567L721,134.802L721.485,135L722,135.208L723,135.412L724,135.527L725,135.657L726,135.807L726.897,136L727,136.027L728,136.188L729,136.271L730,136.318L731,136.318L732,136.318L733,136.28L734,136.203ZM855,177.115L855.569,177L856,176.911L857,176.741L858,176.574L859,176.464L860,176.325L861,176.012L861.021,176L862,175.641L863,175.466L864,175.232L864.423,175L865,174.708L866,174.447L867,174.034L867.045,174L868,173.562L869,173.188L869.24,173L870,172.567L871,172.188L871.225,172L872,171.528L872.86,171L873,170.873L874,170.362L874.425,170L875,169.539L875.719,169L876,168.744L877,168.004L877.004,168L878,167.199L878.202,167L879,166.25L879.252,166L880,165.218L880.214,165L881,164.004L881.004,164L881.757,163L882,162.737L882.551,162L883,161.446L883.378,161L883.931,160L884,159.925L884.552,159L885,158.303L885.246,158L885.62,157L886,156.408L886.296,156L886.594,155L887,154.221L887.161,154L887.502,153L887.782,152L888,151.614L888.307,151L888.515,150L888.741,149L889,148.355L889.161,148L889.401,147L889.541,146L889.678,145L889.892,144L890,143.656L890.188,143L890.325,142L890.426,141L890.488,140L890.514,139L890.54,138L890.574,137L890.607,136L890.647,135L890.668,134L890.668,133L890.668,132L890.668,131L890.668,130L890.668,129L890.668,128L890.668,127L890.668,126L890.668,125L890.668,124L890.668,123L890.668,122L890.668,121L890.671,120L890.671,119L890.671,118L890.668,117L890.671,116L890.671,115L890.668,114L890.671,113L890.671,112L890.668,111L890.668,110L890.671,109L890.668,108L890.668,107L890.671,106L890.671,105L890.671,104L890.671,103L890.671,102L890.671,101L890.671,100L890.671,99L890.671,98L890.671,97L890.671,96L890.671,95L890.671,94L890.671,93L890.671,92L890.671,91L890.675,90L890.671,89L890.671,88L890.671,87L890.675,86L890.675,85L890.671,84L890.671,83L890.675,82L890.671,81L890.671,80L890.671,79L890.675,78L890.675,77L890.675,76L890.675,75L890.675,74L890.675,73L890.675,72L890.675,71L890.675,70L890.675,69L890.675,68L890.675,67L890.675,66L890.675,65L890.675,64L890.678,63L890.675,62L890.678,61L890.678,60L890.678,59L890.678,58L890.678,57L890.675,56L890.675,55L890.678,54L890.675,53L890.675,52L890.678,51L890.675,50L890.598,49L890,48.456L889,48.167L888.669,48L888,47.712L887,47.506L886,47.311L885.253,47L885,46.867L884,46.572L883,46.426L882,46.213L881.415,46L881,45.839L880,45.601L879,45.468L878,45.292L877.095,45L877,44.959L876,44.704L875,44.577L874,44.486L873,44.381L872,44.232L871.083,44L871,43.973L870,43.746L869,43.628L868,43.557L867,43.5L866,43.446L865,43.41L864,43.369L863,43.318L862,43.276L861,43.25L860,43.25L859,43.25L858,43.288L857,43.318L856,43.372L855,43.404L854,43.471L853,43.518L852,43.58L851,43.693L850,43.898L849.638,44L849,44.167L848,44.362L847,44.508L846,44.657L845,44.951L844.913,45L844,45.349L843,45.543L842,45.812L841.683,46L841,46.332L840,46.58L839.076,47L839,47.056L838,47.489L837,47.996L836.995,48L836,48.48L835.004,49L835,49.004L834,49.577L833.413,50L833,50.325L832,50.75L831.719,51L831,51.534L830.444,52L830,52.383L829.173,53L829,53.167L828,53.797L827.792,54L827,54.735L826.73,55L826,55.673L825.664,56L825,56.635L824.642,57L824,57.733L823.743,58L823,58.884L822.885,59L822.167,60L822,60.177L821.416,61L821,61.512L820.597,62L820,62.86L819.867,63L819.382,64L819,64.527L818.645,65L818.208,66L818,66.25L817.545,67L817.188,68L817,68.257L816.597,69L816.284,70L816,70.472L815.693,71L815.465,72L815.161,73L815,73.288L814.678,74L814.472,75L814.28,76L814,76.762L813.892,77L813.619,78L813.496,79L813.375,80L813.183,81L813,81.713L812.917,82L812.741,83L812.619,84L812.538,85L812.494,86L812.453,87L812.404,88L812.372,89L812.359,90L812.343,91L812.336,92L812.366,93L812.399,94L812.428,95L812.471,96L812.525,97L812.588,98L812.675,99L812.85,100L813,100.536L813.133,101L813.325,102L813.468,103L813.599,104L813.833,105L814,105.418L814.218,106L814.466,107L814.654,108L815,108.865L815.076,109L815.444,110L815.685,111L816,111.597L816.237,112L816.54,113L817,113.923L817.062,114L817.504,115L817.996,116L818,116.004L818.546,117L819,117.758L819.198,118L819.637,119L820,119.447L820.43,120L821,120.877L821.115,121L821.697,122L822,122.328L822.555,123L823,123.509L823.433,124L824,124.627L824.367,125L825,125.67L825.323,126L826,126.697L826.307,127L827,127.624L827.404,128L828,128.53L828.534,129L829,129.405L829.872,130L830,130.121L831,130.688L831.391,131L832,131.424L833,131.917L833.094,132L834,132.489L835,132.879L835.156,133L836,133.43L837,133.657L837.773,134L838,134.133L839,134.438L840,134.574L841,134.782L841.724,135L842,135.096L843,135.271L844,135.384L845,135.448L846,135.464L847,135.484L848,135.484L849,135.45L850,135.407L851,135.299L852,135.127L852.378,135L853,134.807L854,134.599L855,134.459L856,134.218L856.461,134L857,133.754L858,133.48L859,133.133L859.199,133L860,132.619L861,132.378L861.686,132L862,131.782L863,131.418L863.728,131L864,130.792L865,130.423L865.637,130L866,129.674L866.455,129L866,128.113L865.904,128L865.161,127L865,126.834L864.26,126L864,125.74L863.203,125L863,124.802L862,124.172L861.813,124L861,123.445L860.339,123L860,122.729L859,122.389L858.248,122L858,121.828L857,121.562L856,121.446L855,121.381L854,121.353L853,121.375L852,121.375L851,121.396L850,121.381L849,121.372L848,121.25L847.034,121L847,120.988L846,120.638L845,120.428L844.171,120L844,119.867L843,119.428L842.423,119L842,118.655L841.091,118L841,117.911L840,117.027L839.973,117L839.041,116L839,115.958L838.285,115L838,114.666L837.528,114L837,113.213L836.807,113L836.327,112L836,111.523L835.654,111L835.359,110L835,109.423L834.708,109L834.44,108L834.089,107L834,106.856L833.631,106L833.431,105L833.213,104L833,103.415L832.839,103L832.601,102L832.492,101L832.396,100L832.263,99L832.049,98L832,97.768L831.856,97L831.75,96L831.664,95L831.599,94L831.567,93L831.557,92L831.545,91L831.536,90L831.55,89L831.585,88L831.622,87L831.671,86L831.777,85L831.966,84L832,83.864L832.183,83L832.329,82L832.468,81L832.59,80L832.792,79L833,78.442L833.172,78L833.452,77L833.641,76L834,75.128L834.076,75L834.453,74L834.763,73L835,72.657L835.372,72L835.664,71L836,70.549L836.387,70L836.823,69L837,68.793L837.498,68L838,67.358L838.323,67L839,66.035L839.034,66L839.781,65L840,64.78L840.81,64L841,63.811L841.866,63L842,62.867L843,62.254L843.284,62L844,61.476L844.626,61L845,60.682L846,60.315L846.468,60L847,59.657L848,59.332L848.588,59L849,58.741L850,58.487L851,58.263L851.689,58L852,57.861L853,57.625L854,57.504L855,57.428L856,57.343L857,57.267L858,57.25L859,57.25L860,57.25L861,57.25L862,57.296L863,57.375L864,57.438L865,57.486L866,57.529L867,57.607L868,57.754L868.922,58L869,58.027L870,58.267L871,58.418L872,58.543L872.544,59L872.828,60L872.833,61L872.828,62L872.833,63L872.828,64L872.833,65L872.828,66L872.828,67L872.828,68L872.828,69L872.828,70L872.828,71L872.828,72L872.828,73L872.828,74L872.828,75L872.823,76L872.823,77L872.828,78L872.823,79L872.823,80L872.823,81L872.828,82L872.823,83L872.823,84L872.823,85L872.823,86L872.823,87L872.823,88L872.823,89L872.823,90L872.817,91L872.823,92L872.817,93L872.823,94L872.817,95L872.823,96L872.817,97L872.823,98L872.817,99L872.817,100L872.817,101L872.817,102L872.817,103L872.817,104L872.817,105L872.817,106L872.812,107L872.812,108L872.817,109L872.812,110L872.812,111L872.817,112L872.817,113L872.812,114L872.812,115L872.812,116L872.812,117L872.812,118L872.812,119L872.812,120L872.812,121L872.812,122L872.812,123L872.812,124L872.807,125L872.812,126L872.812,127L872.812,128L872.812,129L872.807,130L872.807,131L872.807,132L872.807,133L872.807,134L872.807,135L872.807,136L872.802,137L872.759,138L872.704,139L872.661,140L872.58,141L872.502,142L872.415,143L872.232,144L872,144.621L871.844,145L871.596,146L871.404,147L871,147.951L870.966,148L870.557,149L870.198,150L870,150.262L869.585,151L869.108,152L869,152.121L868.477,153L868,153.625L867.668,154L867,154.908L866.911,155L866.139,156L866,156.139L865.179,157L865,157.179L864,157.944L863.943,158L863,158.684L862.641,159L862,159.477L861.167,160L861,160.15L860,160.598L859.307,161L859,161.227L858,161.566L857,161.981L856.973,162L856,162.41L855,162.596L854,162.833L853.582,163L853,163.218L852,163.39L851,163.477L850,163.554L849,163.601L848,163.628L847,163.682L846,163.654L845,163.625L844,163.577L843,163.523L842,163.448L841,163.353L840,163.213L839.014,163L839,162.996L838,162.768L837,162.572L836,162.443L835,162.246L834.284,162L834,161.885L833,161.628L832,161.452L831,161.144L830.744,161L830,160.671L829,160.459L828,160.161L827.728,160L827,159.661L826,159.39L825.252,159L825,158.823L824,158.478L823,158.062L822.917,158L822,157.574L821.156,158L821,158.167L820.593,159L820.359,160L820,160.745L819.839,161L819.513,162L819.227,163L819,163.391L818.685,164L818.437,165L818.027,166L818,166.037L817.58,167L817.343,168L817,168.693L816.812,169L816.661,170L817,170.376L818,170.959L818.052,171L819,171.451L820,171.763L820.356,172L821,172.359L822,172.631L822.738,173L823,173.172L824,173.461L825,173.668L825.774,174L826,174.127L827,174.44L828,174.641L829,174.981L829.044,175L830,175.299L831,175.466L832,175.599L833,175.817L833.491,176L834,176.188L835,176.375L836,176.464L837,176.538L838,176.628L839,176.759L840,176.959L840.177,177L841,177.167L842,177.263L843,177.332L844,177.387L845,177.423L846,177.457L847,177.464L848,177.464L849,177.464L850,177.464L851,177.423L852,177.404L853,177.359L854,177.263ZM168,134.299L168.299,134L168.5,133L168.5,132L168.5,131L168.5,130L168.5,129L168.5,128L168.5,127L168.5,126L168.5,125L168.5,124L168.5,123L168.5,122L168.5,121L168.5,120L168.5,119L168.5,118L168.5,117L168.5,116L168.5,115L168.5,114L168.5,113L168.5,112L168.5,111L168.5,110L168.5,109L168.5,108L168.5,107L168.5,106L168.5,105L168.5,104L168.5,103L168.5,102L168.5,101L168.5,100L168.5,99L168.5,98L168.5,97L168.5,96L168.5,95L168.5,94L168.5,93L168.5,92L168.5,91L168.5,90L168.5,89L168.5,88L168.5,87L168.5,86L168.5,85L168.5,84L168.5,83L168.5,82L168.5,81L168.5,80L168.5,79L168.5,78L168.5,77L168.5,76L168.5,75L168.5,74L168.5,73L168.5,72L168.5,71L168.5,70L168.5,69L168.5,68L168.5,67L168.5,66L168.5,65L168.5,64L168.5,63L168.5,62L168.5,61L168.5,60L168.5,59L168.5,58L168.5,57L168.5,56L168.5,55L168.5,54L168.5,53L168.5,52L168.5,51L168.5,50L168.5,49L168.5,48L168.5,47L168.5,46L168,45.083L167.425,45L167,44.938L166,44.938L165,44.938L164,44.938L163,44.938L162,44.938L161,44.938L160,44.938L159,44.938L158,44.938L157,44.938L156,44.938L155,44.938L154,44.938L153,44.938L152,44.938L151,44.938L150.891,45L150,45.781L149.867,46L149.867,47L149.867,48L149.867,49L149.867,50L149.867,51L149.867,52L149.867,53L149.867,54L149.867,55L149.867,56L149.867,57L149.867,58L149.867,59L149.867,60L149.867,61L149.867,62L149.867,63L149.867,64L149.867,65L149.867,66L149.867,67L149.867,68L149.867,69L149.867,70L149.867,71L149.867,72L149.867,73L149.867,74L149.867,75L149.867,76L149.867,77L149.867,78L149.867,79L149.867,80L149.867,81L149.867,82L149.867,83L149.867,84L149.867,85L149.867,86L149.867,87L149.867,88L149.867,89L149.867,90L149.867,91L149.867,92L149.867,93L149.867,94L149.867,95L149.867,96L149.867,97L149.867,98L149.867,99L149.867,100L149.867,101L149.867,102L149.867,103L149.867,104L149.867,105L149.867,106L149.867,107L149.867,108L149.867,109L149.867,110L149.867,111L149.867,112L149.867,113L149.867,114L149.867,115L149.867,116L149.867,117L149.867,118L149.867,119L149.867,120L149.867,121L149.867,122L149.867,123L149.867,124L149.867,125L149.867,126L149.867,127L149.867,128L149.867,129L149.867,130L149.867,131L149.867,132L149.867,133L150,133.382L150.292,134L151,134.375L152,134.375L153,134.375L154,134.375L155,134.375L156,134.375L157,134.375L158,134.375L159,134.375L160,134.375L161,134.375L162,134.375L163,134.375L164,134.375L165,134.375L166,134.375L167,134.375ZM296,134.318L296.408,134L296.376,133L296,132.493L295.631,132L295.188,131L295,130.777L294.528,130L294,129.098L293.911,129L293.432,128L293,127.373L292.701,127L292.288,126L292,125.635L291.576,125L291.062,124L291,123.93L290.479,123L290,122.243L289.792,122L289.361,121L289,120.507L288.631,120L288.188,119L288,118.777L287.528,118L287,117.098L286.911,117L286.432,116L286,115.373L285.701,115L285.288,114L285,113.635L284.576,113L284.062,112L284,111.93L283.479,111L283,110.243L282.792,110L282.361,109L282,108.507L281.631,108L281.188,107L281,106.777L280.528,106L280,105.098L279.911,105L279.432,104L279,103.373L278.701,103L278.284,102L278,101.639L277.576,101L277.062,100L277,99.931L276.47,99L276,98.248L275.792,98L275.361,97L275,96.51L274.627,96L274.188,95L274,94.777L273.528,94L273,93.098L272.911,93L272.432,92L272,91.373L271.701,91L271.284,90L271,89.644L270.568,89L270.062,88L270,87.93L269.479,87L269,86.243L268.792,86L268.361,85L268,84.507L267.631,84L267.188,83L267,82.777L266.528,82L266,81.098L265.911,81L265.432,80L265,79.373L264.701,79L264.284,78L264,77.617L263.61,77L263.596,76L264,75.459L264.389,75L265,74.347L265.338,74L266,73.247L266.239,73L267,72.14L267.139,72L267.981,71L268,70.981L268.879,70L269,69.878L269.751,69L270,68.745L270.683,68L271,67.67L271.603,67L272,66.587L272.551,66L273,65.53L273.5,65L274,64.462L274.436,64L275,63.398L275.384,63L276,62.311L276.3,62L277,61.23L277.225,61L278,60.134L278.133,60L278.938,59L279,58.937L279.816,58L280,57.814L280.724,57L281,56.716L281.646,56L282,55.634L282.591,55L283,54.576L283.543,54L284,53.511L284.475,53L285,52.444L285.427,52L286,51.369L286.351,51L287,50.293L287.286,50L288,49.213L288.209,49L289,48.049L289.049,48L289.911,47L290,46.91L290.786,46L290.258,45L290,44.938L289,44.938L288,44.938L287,44.938L286,44.938L285,44.938L284,44.938L283,44.938L282,44.938L281,44.938L280,44.938L279,44.938L278,44.938L277,44.938L276,44.938L275,44.938L274,44.938L273,44.938L272,44.938L271,44.996L270.995,45L270,45.462L269.473,46L269,46.534L268.581,47L268,47.69L267.707,48L267,48.859L266.861,49L266.121,50L266,50.124L265.314,51L265,51.334L264.432,52L264,52.48L263.538,53L263,53.604L262.629,54L262,54.766L261.776,55L261,55.988L260.988,56L260.214,57L260,57.223L259.352,58L259,58.372L258.439,59L258,59.473L257.517,60L257,60.588L256.62,61L256,61.714L255.724,62L255,62.871L254.873,63L254.083,64L254,64.084L253.257,65L253,65.27L252.388,66L252,66.409L251.46,67L251,67.506L250.55,68L250,68.64L249.666,69L249,69.828L248.833,70L248.027,71L248,71.027L247.281,72L247,72.311L246.468,73L246,73.555L245.607,74L245,74.802L244.812,75L244.267,76L244,76.308L243.507,77L243,77.721L242.754,78L242.315,79L242,79.433L241.623,80L241.246,81L241,81.361L240.634,82L240.381,83L240,83.882L239.924,84L239.59,85L239.433,86L239.232,87L239,87.713L238.892,88L238.701,89L238.582,90L238.514,91L238.473,92L238.431,93L238.412,94L238.404,95L238.404,96L238.428,97L238.453,98L238.488,99L238.536,100L238.599,101L238.833,102L239,102.167L239.386,102L240,101.752L240.681,101L241,100.666L241.593,100L242,99.564L242.513,99L243,98.473L243.441,98L244,97.398L244.382,97L245,96.279L245.266,96L246,95.158L246.156,95L246.931,94L247,93.93L247.776,93L248,92.77L248.681,92L249,91.666L249.59,91L250,90.561L250.513,90L251,89.473L251.665,89L252,88.746L252.256,89L252.729,90L253,90.363L253.4,91L253.754,92L254,92.324L254.41,93L254.782,94L255,94.28L255.426,95L255.812,96L256,96.234L256.443,97L256.85,98L257,98.179L257.47,99L257.981,100L258,100.021L258.525,101L259,101.864L259.115,102L259.568,103L260,103.717L260.223,104L260.62,105L261,105.578L261.307,106L261.682,107L262,107.441L262.374,108L262.759,109L263,109.3L263.438,110L263.861,111L264,111.161L264.482,112L264.996,113L265,113.004L265.525,114L266,114.85L266.127,115L266.572,116L267,116.704L267.232,117L267.623,118L268,118.571L268.311,119L268.682,120L269,120.425L269.391,121L269.763,122L270,122.295L270.438,123L270.867,124L271,124.155L271.484,125L271.996,126L272,126.004L272.527,127L273,127.841L273.133,128L273.572,129L274,129.698L274.237,130L274.636,131L275,131.533L275.332,132L275.689,133L276,133.397L276.616,134L277,134.299L278,134.318L279,134.318L280,134.318L281,134.318L282,134.318L283,134.318L284,134.318L285,134.318L286,134.318L287,134.318L288,134.318L289,134.318L290,134.318L291,134.318L292,134.318L293,134.318L294,134.318L295,134.318ZM544,134.296L544.296,134L544.5,133L544.5,132L544.5,131L544.5,130L544.5,129L544.5,128L544.5,127L544.5,126L544.5,125L544.5,124L544.5,123L544.5,122L544.5,121L544.5,120L544.5,119L544.5,118L544.5,117L544.5,116L544.5,115L544.5,114L544.5,113L544.5,112L544.5,111L544.5,110L544.5,109L544.5,108L544.5,107L544.5,106L544.5,105L544.5,104L544.5,103L544.5,102L544.5,101L544.5,100L544.5,99L544.5,98L544.5,97L544.5,96L544.5,95L544.5,94L544.5,93L544.5,92L544.5,91L544.5,90L544.5,89L544.5,88L544.5,87L544.5,86L544.5,85L544.5,84L544.5,83L544.5,82L544.5,81L544.5,80L544.5,79L544.5,78L544.5,77L544.5,76L544.5,75L544.5,74L544.5,73L544.5,72L544.5,71L544.5,70L544.5,69L544.5,68L544.5,67L544.5,66L544.5,65L544.5,64L544.5,63L544.5,62L544.5,61L544.5,60L544.5,59L544.5,58L544.5,57L544.5,56L544.5,55L544.5,54L544.5,53L544.5,52L544.5,51L544.5,50L544.5,49L544.5,48L544.5,47L544.5,46L544,45.089L543.405,45L543,44.938L542,44.938L541,44.938L540,44.938L539,44.938L538,44.938L537,44.938L536,44.938L535,44.938L534,44.938L533,44.938L532,44.938L531,44.938L530,44.938L529,44.938L528,44.938L527,44.938L526.891,45L526,45.781L525.867,46L525.867,47L525.867,48L525.867,49L525.867,50L525.867,51L525.867,52L525.867,53L525.867,54L525.867,55L525.867,56L525.867,57L525.867,58L525.867,59L525.867,60L525.867,61L525.867,62L525.867,63L525.867,64L525.867,65L525.867,66L525.867,67L525.867,68L525.867,69L525.867,70L525.867,71L525.867,72L525.867,73L525.867,74L525.867,75L525.867,76L525.867,77L525.867,78L525.867,79L525.867,80L525.867,81L525.867,82L525.867,83L525.867,84L525.867,85L525.867,86L525.867,87L525.867,88L525.867,89L525.867,90L525.867,91L525.867,92L525.867,93L525.867,94L525.867,95L525.867,96L525.867,97L525.867,98L525.867,99L525.867,100L525.867,101L525.867,102L525.867,103L525.867,104L525.867,105L525.867,106L525.867,107L525.867,108L525.867,109L525.867,110L525.867,111L525.867,112L525.867,113L525.867,114L525.867,115L525.867,116L525.867,117L525.867,118L525.867,119L525.867,120L525.867,121L525.867,122L525.867,123L525.867,124L525.867,125L525.867,126L525.867,127L525.867,128L525.867,129L525.867,130L525.867,131L525.867,132L525.867,133L526,133.375L526.298,134L527,134.375L528,134.375L529,134.375L530,134.375L531,134.375L532,134.375L533,134.375L534,134.375L535,134.375L536,134.375L537,134.375L538,134.375L539,134.375L540,134.375L541,134.375L542,134.375L543,134.375ZM606,134.004L606.004,134L606.343,133L606.343,132L606.343,131L606.343,130L606.343,129L606.343,128L606.343,127L606.343,126L606.343,125L606.343,124L606.343,123L606.343,122L606.343,121L606.343,120L606.343,119L606.343,118L606.343,117L606.343,116L606.343,115L606.343,114L606.343,113L606.343,112L606.343,111L606.343,110L606.343,109L606.343,108L606.343,107L606.343,106L606.343,105L606.343,104L606.343,103L606.343,102L606.343,101L606.343,100L606.343,99L606.343,98L606.343,97L606.343,96L606.343,95L606.343,94L606.343,93L606.343,92L606.343,91L606.343,90L606.343,89L606.343,88L606.343,87L606.343,86L606.343,85L606.343,84L606.343,83L606.343,82L606.343,81L606.343,80L606.343,79L606.343,78L606.343,77L606.343,76L606.343,75L606.343,74L606.343,73L606.343,72L606.343,71L606.343,70L606.343,69L606.339,68L606.339,67L606.336,66L606.332,65L606.329,64L606.296,63L606.25,62L606.198,61L606.133,60L606,59.409L605.904,59L605.708,58L605.58,57L605.479,56L605.28,55L605,54.357L604.823,54L604.517,53L604.198,52L604,51.728L603.6,51L603.213,50L603,49.743L602.537,49L602,48.169L601.844,48L601.285,47L601,46.688L600.448,46L600,45.538L599,45.056L598.531,45L598,44.938L597,44.938L596,44.938L595,44.938L594,44.938L593,44.938L592,44.938L591,44.938L590,44.938L589.15,45L589,45.012L588,45.062L587,45.062L586,45.062L585.369,46L585.494,47L585.613,48L585.812,49L586,49.59L586.139,50L586.359,51L586.473,52L586.545,53L586.638,54L586.763,55L586.959,56L587,56.167L587.177,57L587.311,58L587.375,59L587.426,60L587.469,61L587.506,62L587.545,63L587.588,64L587.607,65L587.622,66L587.638,67L587.654,68L587.675,69L587.689,70L587.704,71L587.701,72L587.701,73L587.701,74L587.701,75L587.701,76L587.697,77L587.697,78L587.697,79L587.697,80L587.697,81L587.697,82L587.693,83L587.693,84L587.693,85L587.693,86L587.693,87L587.693,88L587.693,89L587.689,90L587.689,91L587.689,92L587.689,93L587.689,94L587.689,95L587.685,96L587.685,97L587.685,98L587.685,99L587.685,100L587.685,101L587.682,102L587.682,103L587.682,104L587.682,105L587.682,106L587.682,107L587.678,108L587.678,109L587.678,110L587.678,111L587.678,112L587.678,113L587.678,114L587.675,115L587.675,116L587.675,117L587.675,118L587.675,119L587.675,120L587.671,121L587.671,122L587.671,123L587.671,124L587.671,125L587.671,126L587.668,127L587.668,128L587.668,129L587.668,130L587.668,131L587.668,132L587.668,133L588,133.977L588.025,134L589,134.318L590,134.318L591,134.318L592,134.318L593,134.318L594,134.318L595,134.318L596,134.318L597,134.318L598,134.318L599,134.318L600,134.318L601,134.318L602,134.318L603,134.318L604,134.318L605,134.318ZM952,134.299L952.299,134L952.5,133L952.5,132L952.5,131L952.5,130L952.5,129L952.5,128L952.5,127L952.5,126L952.5,125L952.5,124L952.5,123L952.5,122L952.5,121L952.5,120L952.5,119L952.5,118L952.5,117L952.5,116L952.5,115L952.5,114L952.5,113L952.5,112L952.5,111L952.5,110L952.5,109L952.5,108L952.5,107L952.5,106L952.5,105L952.5,104L952.5,103L952.5,102L952.5,101L952.5,100L952.5,99L952.5,98L952.5,97L952.5,96L952.5,95L952.5,94L952.5,93L952.5,92L952.5,91L952.5,90L952.5,89L952.5,88L952.5,87L952.5,86L952.5,85L952.5,84L952.5,83L952.5,82L952.5,81L952.5,80L952.5,79L952.5,78L952.5,77L952.5,76L952.5,75L952.5,74L952.5,73L952.5,72L952.5,71L952.5,70L952.5,69L952.5,68L952.5,67L952.5,66L952.5,65L952.5,64L952.5,63L952.5,62L952.5,61L952.5,60L952.5,59L952.5,58L952.5,57L952.5,56L952.5,55L952.5,54L952.5,53L952.5,52L952.5,51L952.5,50L952.5,49L952.5,48L952.5,47L952.5,46L952,45.083L951.425,45L951,44.938L950,44.938L949,44.938L948,44.938L947,44.938L946,44.938L945,44.938L944,44.938L943,44.938L942,44.938L941,44.938L940,44.938L939,44.938L938,44.938L937,44.938L936,44.938L935,44.938L934.891,45L934,45.781L933.867,46L933.867,47L933.867,48L933.867,49L933.867,50L933.867,51L933.867,52L933.867,53L933.867,54L933.867,55L933.867,56L933.867,57L933.867,58L933.867,59L933.867,60L933.867,61L933.867,62L933.867,63L933.867,64L933.867,65L933.867,66L933.867,67L933.867,68L933.867,69L933.867,70L933.867,71L933.867,72L933.867,73L933.867,74L933.867,75L933.867,76L933.867,77L933.867,78L933.867,79L933.867,80L933.867,81L933.867,82L933.867,83L933.867,84L933.867,85L933.867,86L933.867,87L933.867,88L933.867,89L933.867,90L933.867,91L933.867,92L933.867,93L933.867,94L933.867,95L933.867,96L933.867,97L933.867,98L933.867,99L933.867,100L933.867,101L933.867,102L933.867,103L933.867,104L933.867,105L933.867,106L933.867,107L933.867,108L933.867,109L933.867,110L933.867,111L933.867,112L933.867,113L933.867,114L933.867,115L933.867,116L933.867,117L933.867,118L933.867,119L933.867,120L933.867,121L933.867,122L933.867,123L933.867,124L933.867,125L933.867,126L933.867,127L933.867,128L933.867,129L933.867,130L933.867,131L933.867,132L933.867,133L934,133.382L934.292,134L935,134.375L936,134.375L937,134.375L938,134.375L939,134.375L940,134.375L941,134.375L942,134.375L943,134.375L944,134.375L945,134.375L946,134.375L947,134.375L948,134.375L949,134.375L950,134.375L951,134.375Z" fill="#39C5BB" fill-rule="evenodd" clip-rule="evenodd"/>
</svg>
